# xmcd
#
# Track frame offsets: 
#        150
#        17615
#        34404
#        51847
#        70007
#        90581
#        107472
#        124063
#
# Disc length: 1888 seconds
#
# Revision: 0
# Processed by: cddbd v1.5.2PL0 Copyright (c) Steve Scherf et al.
# Submitted via: ExactAudioCopy v0.99pb5
#
DISCID=5f075e08
DTITLE=Various Artist - CMA New Artist Compilation, Fall 2006
DYEAR=2006
DGENRE=Country
TTITLE0=Eric Church - How 'bout You
TTITLE1=Joanna Cotten - High Maintenance
TTITLE2=Flynnville Train - High On The Mountain
TTITLE3=Lindsey Haun - Broken
TTITLE4=Little Big Town - Boondocks
TTITLE5=Gary Nichols - I Can't Love You Anymore
TTITLE6=Sugarland - Want To
TTITLE7=Trent Tomlinson - One Wing In The Fire
EXTD=
EXTT0=
EXTT1=
EXTT2=
EXTT3=
EXTT4=
EXTT5=
EXTT6=
EXTT7=
PLAYORDER=
